<?xml version="1.0" encoding="UTF-8" standalone="no"?> <svg xmlns="http://www.w3.org/2000/svg" viewBox="0 0 64 64"><defs><style>.cls-1{fill:#d4e9ff;}.cls-2{fill:#b7daff;}</style></defs><g id="Layer_52" data-name="Layer 52"><g id="Layer_16-2" data-name="Layer 16"><path class="cls-1" d="M52,35V16L41,4H14.42A2.42,2.42,0,0,0,12,6.42V35H8V49h4v8.58A2.42,2.42,0,0,0,14.42,60H49.58A2.42,2.42,0,0,0,52,57.58V49h4V35Z"/><polygon class="cls-1" points="52 16 41 16 41 4 52 16"/><rect class="cls-2" x="12" y="49" width="40" height="4"/><path d="M57,35a1,1,0,0,0-1-1H53V15.94a.74.74,0,0,0,0-.21v-.07h0a.88.88,0,0,0-.18-.29l-11-12a.86.86,0,0,0-.29-.21h-.06A1,1,0,0,0,41.11,3H14.42A3.42,3.42,0,0,0,11,6.42V34H8a1,1,0,0,0-1,1V49.07a1.11,1.11,0,0,0,.34.68v0L11,52.5v5.08A3.42,3.42,0,0,0,14.42,61H49.58A3.42,3.42,0,0,0,53,57.58V52.5l3.6-2.7v0a1.11,1.11,0,0,0,.34-.68V49ZM21,34V5H40V16a1,1,0,0,0,1,1H51V34ZM42,6.57,49.73,15H42ZM13,6.42A1.43,1.43,0,0,1,14.42,5H19V34H13ZM9,36H55V48H9Zm4,21.58V50h6v9H14.42A1.43,1.43,0,0,1,13,57.58ZM49.58,59H21V50H51v7.58A1.43,1.43,0,0,1,49.58,59Z"/></g><path d="M15.08,46.06a.91.91,0,0,1-.63-.23.85.85,0,0,1-.26-.66.87.87,0,0,1,.87-.87.86.86,0,0,1,.63.26.83.83,0,0,1,.26.61.84.84,0,0,1-.87.89Z"/><path d="M19.64,38.24V40.7h3.75V38.24a1.11,1.11,0,0,1,.24-.79.8.8,0,0,1,.62-.27.84.84,0,0,1,.64.26,1.16,1.16,0,0,1,.24.8V45a1.14,1.14,0,0,1-.24.8.83.83,0,0,1-.64.26.76.76,0,0,1-.62-.26,1.16,1.16,0,0,1-.24-.8V42.12H19.64V45a1.14,1.14,0,0,1-.25.8.89.89,0,0,1-1.26,0,1.16,1.16,0,0,1-.23-.8V38.24a1.11,1.11,0,0,1,.23-.79.77.77,0,0,1,.63-.27.83.83,0,0,1,.63.26A1.11,1.11,0,0,1,19.64,38.24Z"/><path d="M32.58,38.76h-1.9V45a1.14,1.14,0,0,1-.24.8.88.88,0,0,1-1.25,0A1.14,1.14,0,0,1,29,45V38.76h-1.9a1,1,0,0,1-.66-.19.66.66,0,0,1-.22-.52.67.67,0,0,1,.23-.53,1,1,0,0,1,.65-.19h5.53a.94.94,0,0,1,.67.2.65.65,0,0,1,.22.52.66.66,0,0,1-.22.52A1,1,0,0,1,32.58,38.76Z"/><path d="M37.4,44.62,36,39.15v5.93a1.13,1.13,0,0,1-.22.74.78.78,0,0,1-.59.24.75.75,0,0,1-.57-.24,1.06,1.06,0,0,1-.22-.74v-6.8a.83.83,0,0,1,.29-.75,1.32,1.32,0,0,1,.79-.2h.54a2,2,0,0,1,.7.09.56.56,0,0,1,.33.31,4.77,4.77,0,0,1,.24.75l1.25,4.7,1.25-4.7a4.77,4.77,0,0,1,.24-.75.57.57,0,0,1,.32-.31,2,2,0,0,1,.71-.09h.54a1.34,1.34,0,0,1,.79.2.85.85,0,0,1,.29.75v6.8a1.07,1.07,0,0,1-.22.74.76.76,0,0,1-.59.24.75.75,0,0,1-.57-.24,1.13,1.13,0,0,1-.22-.74V39.15l-1.38,5.47c-.09.36-.16.62-.22.79a1.08,1.08,0,0,1-.31.45.88.88,0,0,1-.63.2.94.94,0,0,1-.85-.46,2.1,2.1,0,0,1-.18-.46C37.5,45,37.45,44.8,37.4,44.62Z"/><path d="M46.2,38.24v6.25h3.53a1,1,0,0,1,.65.2.67.67,0,0,1,.22.52.64.64,0,0,1-.22.51,1,1,0,0,1-.65.2h-4.2a.91.91,0,0,1-1.07-1.07V38.24a1.11,1.11,0,0,1,.24-.79.8.8,0,0,1,.62-.27.84.84,0,0,1,.64.26A1.16,1.16,0,0,1,46.2,38.24Z"/></g></svg>