<svg width="480" height="480" viewBox="0 0 480 480" fill="none" xmlns="http://www.w3.org/2000/svg">
<path d="M432 96H216L168 48H48C21.6 48 0 69.6 0 96V192H480V144C480 117.6 458.4 96 432 96Z" fill="#FF8468"/>
<path d="M432 96H48C21.6 96 0 117.6 0 144V384C0 410.4 21.6 432 48 432H432C458.4 432 480 410.4 480 384V144C480 117.6 458.4 96 432 96Z" fill="#FFB489"/>
<path d="M147 219V303H127.56V268.56H89.4V303H69.96V219H89.4V252.12H127.56V219H147ZM184.274 234.84H157.394V219H230.594V234.84H203.714V303H184.274V234.84ZM317.494 303L317.374 252.6L292.654 294.12H283.894L259.294 253.68V303H241.054V219H257.134L288.574 271.2L319.534 219H335.494L335.734 303H317.494ZM355.663 219H375.103V287.16H417.223V303H355.663V219Z" fill="black"/>
</svg>
