<svg width="480" height="480" viewBox="0 0 480 480" fill="none" xmlns="http://www.w3.org/2000/svg">
<path d="M432 96H216L168 48H48C21.6 48 0 69.6 0 96V192H480V144C480 117.6 458.4 96 432 96Z" fill="#FFCB73"/>
<path d="M432 96H48C21.6 96 0 117.6 0 144V384C0 410.4 21.6 432 48 432H432C458.4 432 480 410.4 480 384V144C480 117.6 458.4 96 432 96Z" fill="#FFE186"/>
<path d="M194.44 309.44C188.76 309.44 183.52 308.4 178.72 306.32C174 304.16 170.12 301.12 167.08 297.2L177.88 284.24C182.44 290.4 187.64 293.48 193.48 293.48C201.4 293.48 205.36 288.84 205.36 279.56V239.6H175.84V224H224.68V278.48C224.68 288.8 222.12 296.56 217 301.76C211.88 306.88 204.36 309.44 194.44 309.44ZM271.482 309.44C264.842 309.44 258.402 308.56 252.162 306.8C246.002 304.96 241.042 302.6 237.282 299.72L243.882 285.08C247.482 287.72 251.762 289.84 256.722 291.44C261.682 293.04 266.642 293.84 271.602 293.84C277.122 293.84 281.202 293.04 283.842 291.44C286.482 289.76 287.802 287.56 287.802 284.84C287.802 282.84 287.002 281.2 285.402 279.92C283.882 278.56 281.882 277.48 279.402 276.68C277.002 275.88 273.722 275 269.562 274.04C263.162 272.52 257.922 271 253.842 269.48C249.762 267.96 246.242 265.52 243.282 262.16C240.402 258.8 238.962 254.32 238.962 248.72C238.962 243.84 240.282 239.44 242.922 235.52C245.562 231.52 249.522 228.36 254.802 226.04C260.162 223.72 266.682 222.56 274.362 222.56C279.722 222.56 284.962 223.2 290.082 224.48C295.202 225.76 299.682 227.6 303.522 230L297.522 244.76C289.762 240.36 282.002 238.16 274.242 238.16C268.802 238.16 264.762 239.04 262.122 240.8C259.562 242.56 258.282 244.88 258.282 247.76C258.282 250.64 259.762 252.8 262.722 254.24C265.762 255.6 270.362 256.96 276.522 258.32C282.922 259.84 288.162 261.36 292.242 262.88C296.322 264.4 299.802 266.8 302.682 270.08C305.642 273.36 307.122 277.8 307.122 283.4C307.122 288.2 305.762 292.6 303.042 296.6C300.402 300.52 296.402 303.64 291.042 305.96C285.682 308.28 279.162 309.44 271.482 309.44Z" fill="black"/>
</svg>
