<?xml version="1.0" encoding="UTF-8" standalone="no"?> <svg xmlns="http://www.w3.org/2000/svg" viewBox="0 0 64 64"><defs><style>.cls-1{fill:#d4e9ff;}.cls-2{fill:#b7daff;}</style></defs><g id="Layer_24" data-name="Layer 24"><g id="Layer_16-2" data-name="Layer 16"><path class="cls-1" d="M52,35V16L41,4H14.42A2.42,2.42,0,0,0,12,6.42V35H8V49h4v8.58A2.42,2.42,0,0,0,14.42,60H49.58A2.42,2.42,0,0,0,52,57.58V49h4V35Z"/><polygon class="cls-1" points="52 16 41 16 41 4 52 16"/><rect class="cls-2" x="12" y="49" width="40" height="4"/><path d="M57,35a1,1,0,0,0-1-1H53V15.94a.74.74,0,0,0,0-.21v-.07h0a.88.88,0,0,0-.18-.29l-11-12a.86.86,0,0,0-.29-.21h-.06A1,1,0,0,0,41.11,3H14.42A3.42,3.42,0,0,0,11,6.42V34H8a1,1,0,0,0-1,1V49.07a1.11,1.11,0,0,0,.34.68v0L11,52.5v5.08A3.42,3.42,0,0,0,14.42,61H49.58A3.42,3.42,0,0,0,53,57.58V52.5l3.6-2.7v0a1.11,1.11,0,0,0,.34-.68V49ZM21,34V5H40V16a1,1,0,0,0,1,1H51V34ZM42,6.57,49.73,15H42ZM13,6.42A1.43,1.43,0,0,1,14.42,5H19V34H13ZM9,36H55V48H9Zm4,21.58V50h6v9H14.42A1.43,1.43,0,0,1,13,57.58ZM49.58,59H21V50H51v7.58A1.43,1.43,0,0,1,49.58,59Z"/></g><path d="M15.26,46.06a.89.89,0,0,1-.63-.23.82.82,0,0,1-.26-.66.87.87,0,0,1,.87-.87.86.86,0,0,1,.63.26.83.83,0,0,1,.26.61.84.84,0,0,1-.87.89Z"/><path d="M23.06,38.24v4.5a9,9,0,0,1,0,1,3.22,3.22,0,0,1-.23.83,2.24,2.24,0,0,1-1,1.11,3.21,3.21,0,0,1-1.64.39,3.44,3.44,0,0,1-1.45-.27,2.07,2.07,0,0,1-.94-.89,3.1,3.1,0,0,1-.31-.76,2.94,2.94,0,0,1-.12-.81.78.78,0,0,1,.82-.85.67.67,0,0,1,.52.2,1.37,1.37,0,0,1,.27.63,5.72,5.72,0,0,0,.2.72,1.15,1.15,0,0,0,.33.46,1,1,0,0,0,.67.19c.77,0,1.16-.56,1.16-1.69V38.24a1.13,1.13,0,0,1,.23-.79.77.77,0,0,1,.63-.27.81.81,0,0,1,.64.27A1.13,1.13,0,0,1,23.06,38.24Z"/><path d="M31.47,43.34a2.49,2.49,0,0,1-.4,1.4,2.66,2.66,0,0,1-1.18,1,4.27,4.27,0,0,1-1.83.35,4.13,4.13,0,0,1-2.1-.48,2.7,2.7,0,0,1-.95-.92,2.13,2.13,0,0,1-.37-1.12.77.77,0,0,1,.78-.77.66.66,0,0,1,.47.18,1.29,1.29,0,0,1,.32.52,3.3,3.3,0,0,0,.36.68,1.41,1.41,0,0,0,.53.46,2,2,0,0,0,.91.18,2,2,0,0,0,1.26-.36,1.09,1.09,0,0,0,.48-.9.94.94,0,0,0-.26-.7,1.71,1.71,0,0,0-.67-.4,9.27,9.27,0,0,0-1.11-.3,9.08,9.08,0,0,1-1.55-.51,2.59,2.59,0,0,1-1-.79,2.08,2.08,0,0,1-.36-1.25,2.2,2.2,0,0,1,.38-1.26,2.56,2.56,0,0,1,1.12-.84,4.57,4.57,0,0,1,1.73-.3,4.24,4.24,0,0,1,1.36.2,2.74,2.74,0,0,1,1,.52,2.16,2.16,0,0,1,.56.68,1.53,1.53,0,0,1,.17.7.85.85,0,0,1-.21.56.7.7,0,0,1-.55.25.65.65,0,0,1-.46-.15,2,2,0,0,1-.33-.49,2.3,2.3,0,0,0-.57-.76,1.65,1.65,0,0,0-1-.27,1.9,1.9,0,0,0-1.09.29.88.88,0,0,0-.41.72.72.72,0,0,0,.14.44,1.05,1.05,0,0,0,.39.32,2.58,2.58,0,0,0,.49.21c.17.06.45.13.84.23s.92.24,1.31.37a4.24,4.24,0,0,1,1,.5,2.1,2.1,0,0,1,.65.74A2.45,2.45,0,0,1,31.47,43.34Z"/><path d="M36.73,37.18a4.59,4.59,0,0,1,2.29.54,3.56,3.56,0,0,1,1.45,1.55A5.18,5.18,0,0,1,41,41.61a5.69,5.69,0,0,1-.27,1.81,3.78,3.78,0,0,1-.81,1.41,3.53,3.53,0,0,1-1.32.92,4.78,4.78,0,0,1-1.8.31,4.66,4.66,0,0,1-1.8-.32,3.45,3.45,0,0,1-1.33-.92,3.82,3.82,0,0,1-.81-1.42,5.85,5.85,0,0,1-.27-1.8,5.56,5.56,0,0,1,.28-1.82,3.83,3.83,0,0,1,.83-1.4A3.36,3.36,0,0,1,35,37.49,4.61,4.61,0,0,1,36.73,37.18ZM39.2,41.6A3.89,3.89,0,0,0,38.89,40a2.22,2.22,0,0,0-.87-1,2.34,2.34,0,0,0-1.29-.36,2.4,2.4,0,0,0-1,.2,2.12,2.12,0,0,0-.76.57,2.72,2.72,0,0,0-.5,1,4.65,4.65,0,0,0,0,2.63,2.59,2.59,0,0,0,.52,1,2.15,2.15,0,0,0,.77.58,2.32,2.32,0,0,0,1,.19A2.41,2.41,0,0,0,38,44.35a2.33,2.33,0,0,0,.89-1A4,4,0,0,0,39.2,41.6Z"/><path d="M44.72,38.23l3.34,5.06V38.18a1.1,1.1,0,0,1,.22-.75.73.73,0,0,1,.57-.25.79.79,0,0,1,.6.25,1.16,1.16,0,0,1,.21.75v6.75c0,.76-.31,1.13-.93,1.13A1.44,1.44,0,0,1,48.3,46a1.2,1.2,0,0,1-.35-.22,1.66,1.66,0,0,1-.3-.34c-.1-.13-.19-.26-.28-.4L44.1,40v5a1,1,0,0,1-.23.74.81.81,0,0,1-1.17,0,1.09,1.09,0,0,1-.23-.74V38.44a1.7,1.7,0,0,1,.1-.66.85.85,0,0,1,.37-.43,1,1,0,0,1,.55-.17,1,1,0,0,1,.4.08,1,1,0,0,1,.3.2,2.71,2.71,0,0,1,.26.34Z"/></g></svg>