<svg width="480" height="480" viewBox="0 0 480 480" fill="none" xmlns="http://www.w3.org/2000/svg">
<path d="M432 96H216L168 48H48C21.6 48 0 69.6 0 96V192H480V144C480 117.6 458.4 96 432 96Z" fill="#7E00DB"/>
<path d="M432 96H48C21.6 96 0 117.6 0 144V384C0 410.4 21.6 432 48 432H432C458.4 432 480 410.4 480 384V144C480 117.6 458.4 96 432 96Z" fill="#9428FF"/>
<path d="M150.32 219C157.76 219 164.2 220.24 169.64 222.72C175.16 225.2 179.4 228.72 182.36 233.28C185.32 237.84 186.8 243.24 186.8 249.48C186.8 255.64 185.32 261.04 182.36 265.68C179.4 270.24 175.16 273.76 169.64 276.24C164.2 278.64 157.76 279.84 150.32 279.84H133.4V303H113.96V219H150.32ZM149.24 264C155.08 264 159.52 262.76 162.56 260.28C165.6 257.72 167.12 254.12 167.12 249.48C167.12 244.76 165.6 241.16 162.56 238.68C159.52 236.12 155.08 234.84 149.24 234.84H133.4V264H149.24ZM277.719 219V303H258.279V268.56H220.119V303H200.679V219H220.119V252.12H258.279V219H277.719ZM333.953 219C341.393 219 347.833 220.24 353.273 222.72C358.793 225.2 363.033 228.72 365.993 233.28C368.953 237.84 370.433 243.24 370.433 249.48C370.433 255.64 368.953 261.04 365.993 265.68C363.033 270.24 358.793 273.76 353.273 276.24C347.833 278.64 341.393 279.84 333.953 279.84H317.033V303H297.593V219H333.953ZM332.873 264C338.713 264 343.153 262.76 346.193 260.28C349.233 257.72 350.753 254.12 350.753 249.48C350.753 244.76 349.233 241.16 346.193 238.68C343.153 236.12 338.713 234.84 332.873 234.84H317.033V264H332.873Z" fill="black"/>
</svg>
