<?xml version="1.0" encoding="UTF-8" standalone="no"?> <svg xmlns="http://www.w3.org/2000/svg" viewBox="0 0 64 64"><defs><style>.cls-1{fill:#d4e9ff;}.cls-2{fill:#b7daff;}</style></defs><g id="Layer_88" data-name="Layer 88"><g id="Layer_16-2" data-name="Layer 16"><path class="cls-1" d="M52,35V16L41,4H14.42A2.42,2.42,0,0,0,12,6.42V35H8V49h4v8.58A2.42,2.42,0,0,0,14.42,60H49.58A2.42,2.42,0,0,0,52,57.58V49h4V35Z"/><polygon class="cls-1" points="52 16 41 16 41 4 52 16"/><rect class="cls-2" x="12" y="49" width="40" height="4"/><path d="M57,35a1,1,0,0,0-1-1H53V15.94a.74.74,0,0,0,0-.21v-.07h0a.88.88,0,0,0-.18-.29l-11-12a.86.86,0,0,0-.29-.21h-.06A1,1,0,0,0,41.11,3H14.42A3.42,3.42,0,0,0,11,6.42V34H8a1,1,0,0,0-1,1V49.07a1.11,1.11,0,0,0,.34.68v0L11,52.5v5.08A3.42,3.42,0,0,0,14.42,61H49.58A3.42,3.42,0,0,0,53,57.58V52.5l3.6-2.7v0a1.11,1.11,0,0,0,.34-.68V49ZM21,34V5H40V16a1,1,0,0,0,1,1H51V34ZM42,6.57,49.73,15H42ZM13,6.42A1.43,1.43,0,0,1,14.42,5H19V34H13ZM9,36H55V48H9Zm4,21.58V50h6v9H14.42A1.43,1.43,0,0,1,13,57.58ZM49.58,59H21V50H51v7.58A1.43,1.43,0,0,1,49.58,59Z"/></g><path d="M15.69,46.06a.91.91,0,0,1-.63-.23.82.82,0,0,1-.26-.66.87.87,0,0,1,.87-.87.86.86,0,0,1,.63.26.83.83,0,0,1,.26.61.84.84,0,0,1-.87.89Z"/><path d="M25,43.34a2.49,2.49,0,0,1-.4,1.4,2.69,2.69,0,0,1-1.17,1,4.35,4.35,0,0,1-1.84.35,4.13,4.13,0,0,1-2.1-.48,2.79,2.79,0,0,1-1-.92,2.11,2.11,0,0,1-.36-1.12.77.77,0,0,1,.77-.77.66.66,0,0,1,.47.18,1.3,1.3,0,0,1,.33.52,3.3,3.3,0,0,0,.35.68,1.44,1.44,0,0,0,.54.46,2,2,0,0,0,.9.18,2,2,0,0,0,1.26-.36,1.09,1.09,0,0,0,.48-.9.94.94,0,0,0-.26-.7,1.64,1.64,0,0,0-.67-.4,9,9,0,0,0-1.1-.3,8.52,8.52,0,0,1-1.55-.51,2.45,2.45,0,0,1-1-.79,2,2,0,0,1-.37-1.25,2.14,2.14,0,0,1,.39-1.26,2.45,2.45,0,0,1,1.12-.84,4.48,4.48,0,0,1,1.72-.3,4.3,4.3,0,0,1,1.37.2,2.79,2.79,0,0,1,.95.52,2.16,2.16,0,0,1,.56.68,1.55,1.55,0,0,1,.18.7.86.86,0,0,1-.22.56.7.7,0,0,1-.55.25.65.65,0,0,1-.46-.15,2,2,0,0,1-.33-.49,2.42,2.42,0,0,0-.56-.76,1.66,1.66,0,0,0-1.06-.27,1.9,1.9,0,0,0-1.09.29.88.88,0,0,0-.41.72.72.72,0,0,0,.14.44,1.14,1.14,0,0,0,.39.32,2.41,2.41,0,0,0,.5.21c.16.06.44.13.83.23s.92.24,1.31.37a4,4,0,0,1,1,.5,2.07,2.07,0,0,1,.64.74A2.45,2.45,0,0,1,25,43.34Z"/><path d="M32,45l-.41-1.08H28.09L27.68,45a4,4,0,0,1-.41.87.65.65,0,0,1-.56.22.84.84,0,0,1-.58-.24.76.76,0,0,1-.25-.54,1.13,1.13,0,0,1,.06-.36c0-.13.1-.3.19-.53l2.2-5.57.23-.58a3.24,3.24,0,0,1,.28-.56,1.12,1.12,0,0,1,.39-.36,1.21,1.21,0,0,1,.6-.14,1.25,1.25,0,0,1,.61.14,1.2,1.2,0,0,1,.39.35,2.64,2.64,0,0,1,.25.47c.07.17.16.39.26.66l2.25,5.55a2.9,2.9,0,0,1,.26.92.76.76,0,0,1-.25.55.81.81,0,0,1-.6.24.78.78,0,0,1-.35-.07.69.69,0,0,1-.25-.2,2.36,2.36,0,0,1-.21-.38Zm-3.44-2.39h2.57L29.82,39Z"/><path d="M41.66,43.34a2.5,2.5,0,0,1-.41,1.4,2.58,2.58,0,0,1-1.17,1,4.33,4.33,0,0,1-1.83.35,4.13,4.13,0,0,1-2.1-.48,2.7,2.7,0,0,1-.95-.92,2,2,0,0,1-.37-1.12.73.73,0,0,1,.22-.54.75.75,0,0,1,.56-.23.67.67,0,0,1,.47.18,1.41,1.41,0,0,1,.32.52,3.88,3.88,0,0,0,.35.68,1.44,1.44,0,0,0,.54.46,2,2,0,0,0,.91.18,2.09,2.09,0,0,0,1.26-.36,1.09,1.09,0,0,0,.48-.9,1,1,0,0,0-.26-.7,1.75,1.75,0,0,0-.68-.4,8.55,8.55,0,0,0-1.1-.3,8.79,8.79,0,0,1-1.55-.51,2.45,2.45,0,0,1-1-.79A2.08,2.08,0,0,1,35,39.58a2.14,2.14,0,0,1,.39-1.26,2.5,2.5,0,0,1,1.12-.84,4.52,4.52,0,0,1,1.72-.3,4.26,4.26,0,0,1,1.37.2,2.84,2.84,0,0,1,1,.52,2.3,2.3,0,0,1,.56.68,1.67,1.67,0,0,1,.17.7.81.81,0,0,1-.22.56.68.68,0,0,1-.55.25.61.61,0,0,1-.45-.15,2,2,0,0,1-.34-.49,2.15,2.15,0,0,0-.56-.76,1.65,1.65,0,0,0-1-.27,1.88,1.88,0,0,0-1.09.29.86.86,0,0,0-.41.72.66.66,0,0,0,.14.44,1.1,1.1,0,0,0,.38.32,2.66,2.66,0,0,0,.5.21c.17.06.45.13.83.23a13.52,13.52,0,0,1,1.32.37,4.06,4.06,0,0,1,1,.5,2,2,0,0,1,.64.74A2.32,2.32,0,0,1,41.66,43.34Z"/><path d="M49.66,43.34a2.49,2.49,0,0,1-.4,1.4,2.66,2.66,0,0,1-1.18,1,4.27,4.27,0,0,1-1.83.35,4.13,4.13,0,0,1-2.1-.48,2.7,2.7,0,0,1-.95-.92,2.13,2.13,0,0,1-.37-1.12.77.77,0,0,1,.78-.77.66.66,0,0,1,.47.18,1.29,1.29,0,0,1,.32.52,3.3,3.3,0,0,0,.36.68,1.41,1.41,0,0,0,.53.46,2,2,0,0,0,.91.18,2,2,0,0,0,1.26-.36,1.09,1.09,0,0,0,.48-.9.94.94,0,0,0-.26-.7,1.71,1.71,0,0,0-.67-.4,8.77,8.77,0,0,0-1.11-.3,9.08,9.08,0,0,1-1.55-.51,2.59,2.59,0,0,1-1-.79A2.08,2.08,0,0,1,43,39.58a2.2,2.2,0,0,1,.38-1.26,2.56,2.56,0,0,1,1.12-.84,4.57,4.57,0,0,1,1.73-.3,4.24,4.24,0,0,1,1.36.2,2.74,2.74,0,0,1,1,.52,2.16,2.16,0,0,1,.56.68,1.55,1.55,0,0,1,.18.7.86.86,0,0,1-.22.56.7.7,0,0,1-.55.25.65.65,0,0,1-.46-.15,2,2,0,0,1-.33-.49,2.3,2.3,0,0,0-.57-.76,1.63,1.63,0,0,0-1-.27,1.9,1.9,0,0,0-1.09.29.88.88,0,0,0-.41.72.72.72,0,0,0,.14.44,1.05,1.05,0,0,0,.39.32,2.58,2.58,0,0,0,.49.21c.17.06.45.13.84.23s.92.24,1.31.37a3.89,3.89,0,0,1,1,.5,2.1,2.1,0,0,1,.65.74A2.45,2.45,0,0,1,49.66,43.34Z"/></g></svg>