<svg width="480" height="480" viewBox="0 0 480 480" fill="none" xmlns="http://www.w3.org/2000/svg">
<path d="M432 96H216L168 48H48C21.6 48 0 69.6 0 96V192H480V144C480 117.6 458.4 96 432 96Z" fill="#FF66C4"/>
<path d="M432 96H48C21.6 96 0 117.6 0 144V384C0 410.4 21.6 432 48 432H432C458.4 432 480 410.4 480 384V144C480 117.6 458.4 96 432 96Z" fill="#FF8ECB"/>
<path d="M118.56 304.44C111.92 304.44 105.48 303.56 99.24 301.8C93.08 299.96 88.12 297.6 84.36 294.72L90.96 280.08C94.56 282.72 98.84 284.84 103.8 286.44C108.76 288.04 113.72 288.84 118.68 288.84C124.2 288.84 128.28 288.04 130.92 286.44C133.56 284.76 134.88 282.56 134.88 279.84C134.88 277.84 134.08 276.2 132.48 274.92C130.96 273.56 128.96 272.48 126.48 271.68C124.08 270.88 120.8 270 116.64 269.04C110.24 267.52 105 266 100.92 264.48C96.84 262.96 93.32 260.52 90.36 257.16C87.48 253.8 86.04 249.32 86.04 243.72C86.04 238.84 87.36 234.44 90 230.52C92.64 226.52 96.6 223.36 101.88 221.04C107.24 218.72 113.76 217.56 121.44 217.56C126.8 217.56 132.04 218.2 137.16 219.48C142.28 220.76 146.76 222.6 150.6 225L144.6 239.76C136.84 235.36 129.08 233.16 121.32 233.16C115.88 233.16 111.84 234.04 109.2 235.8C106.64 237.56 105.36 239.88 105.36 242.76C105.36 245.64 106.84 247.8 109.8 249.24C112.84 250.6 117.44 251.96 123.6 253.32C130 254.84 135.24 256.36 139.32 257.88C143.4 259.4 146.88 261.8 149.76 265.08C152.72 268.36 154.2 272.8 154.2 278.4C154.2 283.2 152.84 287.6 150.12 291.6C147.48 295.52 143.48 298.64 138.12 300.96C132.76 303.28 126.24 304.44 118.56 304.44ZM207.683 304.44C199.123 304.44 191.363 302.6 184.403 298.92C177.523 295.16 172.083 290 168.083 283.44C164.163 276.8 162.203 269.32 162.203 261C162.203 252.68 164.163 245.24 168.083 238.68C172.083 232.04 177.523 226.88 184.403 223.2C191.363 219.44 199.163 217.56 207.803 217.56C215.083 217.56 221.643 218.84 227.483 221.4C233.403 223.96 238.363 227.64 242.363 232.44L229.883 243.96C224.203 237.4 217.163 234.12 208.763 234.12C203.563 234.12 198.923 235.28 194.843 237.6C190.763 239.84 187.563 243 185.243 247.08C183.003 251.16 181.883 255.8 181.883 261C181.883 266.2 183.003 270.84 185.243 274.92C187.563 279 190.763 282.2 194.843 284.52C198.923 286.76 203.563 287.88 208.763 287.88C217.163 287.88 224.203 284.56 229.883 277.92L242.363 289.44C238.363 294.32 233.403 298.04 227.483 300.6C221.563 303.16 214.963 304.44 207.683 304.44ZM282.388 304.44C275.748 304.44 269.308 303.56 263.068 301.8C256.908 299.96 251.948 297.6 248.188 294.72L254.788 280.08C258.388 282.72 262.668 284.84 267.628 286.44C272.588 288.04 277.548 288.84 282.508 288.84C288.028 288.84 292.108 288.04 294.748 286.44C297.388 284.76 298.708 282.56 298.708 279.84C298.708 277.84 297.908 276.2 296.308 274.92C294.788 273.56 292.788 272.48 290.308 271.68C287.908 270.88 284.628 270 280.468 269.04C274.068 267.52 268.828 266 264.748 264.48C260.668 262.96 257.148 260.52 254.188 257.16C251.308 253.8 249.868 249.32 249.868 243.72C249.868 238.84 251.188 234.44 253.828 230.52C256.468 226.52 260.428 223.36 265.708 221.04C271.068 218.72 277.588 217.56 285.268 217.56C290.628 217.56 295.868 218.2 300.988 219.48C306.108 220.76 310.588 222.6 314.428 225L308.428 239.76C300.668 235.36 292.908 233.16 285.148 233.16C279.708 233.16 275.668 234.04 273.028 235.8C270.468 237.56 269.188 239.88 269.188 242.76C269.188 245.64 270.668 247.8 273.628 249.24C276.668 250.6 281.268 251.96 287.428 253.32C293.828 254.84 299.068 256.36 303.148 257.88C307.228 259.4 310.708 261.8 313.588 265.08C316.548 268.36 318.028 272.8 318.028 278.4C318.028 283.2 316.668 287.6 313.948 291.6C311.308 295.52 307.308 298.64 301.948 300.96C296.588 303.28 290.068 304.44 282.388 304.44ZM358.912 304.44C352.272 304.44 345.832 303.56 339.592 301.8C333.432 299.96 328.472 297.6 324.712 294.72L331.312 280.08C334.912 282.72 339.192 284.84 344.152 286.44C349.112 288.04 354.072 288.84 359.032 288.84C364.552 288.84 368.632 288.04 371.272 286.44C373.912 284.76 375.232 282.56 375.232 279.84C375.232 277.84 374.432 276.2 372.832 274.92C371.312 273.56 369.312 272.48 366.832 271.68C364.432 270.88 361.152 270 356.992 269.04C350.592 267.52 345.352 266 341.272 264.48C337.192 262.96 333.672 260.52 330.712 257.16C327.832 253.8 326.392 249.32 326.392 243.72C326.392 238.84 327.712 234.44 330.352 230.52C332.992 226.52 336.952 223.36 342.232 221.04C347.592 218.72 354.112 217.56 361.792 217.56C367.152 217.56 372.392 218.2 377.512 219.48C382.632 220.76 387.112 222.6 390.952 225L384.952 239.76C377.192 235.36 369.432 233.16 361.672 233.16C356.232 233.16 352.192 234.04 349.552 235.8C346.992 237.56 345.712 239.88 345.712 242.76C345.712 245.64 347.192 247.8 350.152 249.24C353.192 250.6 357.792 251.96 363.952 253.32C370.352 254.84 375.592 256.36 379.672 257.88C383.752 259.4 387.232 261.8 390.112 265.08C393.072 268.36 394.552 272.8 394.552 278.4C394.552 283.2 393.192 287.6 390.472 291.6C387.832 295.52 383.832 298.64 378.472 300.96C373.112 303.28 366.592 304.44 358.912 304.44Z" fill="black"/>
</svg>
